<?xml version="1.0" standalone="no"?><!DOCTYPE svg PUBLIC "-//W3C//DTD SVG 1.1//EN" "http://www.w3.org/Graphics/SVG/1.1/DTD/svg11.dtd"><svg t="1592743685775" class="icon" viewBox="0 0 1024 1024" version="1.1" xmlns="http://www.w3.org/2000/svg" p-id="2986" xmlns:xlink="http://www.w3.org/1999/xlink" width="200" height="200"><defs><style type="text/css"></style></defs><path d="M677.07904 597.32992M917.4528 654.61248 469.94432 207.104c-4.88448-4.87424-11.48928-7.61856-18.37056-7.61856L287.72352 199.48544c-11.79648-15.0016-27.66848-27.8528-46.31552-37.10976-44.91264-22.31296-95.51872-18.6368-123.0848 8.9088-5.08928 5.09952-9.27744 10.9056-12.45184 17.28512-10.16832 20.48-9.12384 44.81024 2.93888 68.49536 11.63264 22.84544 32.256 42.48576 58.10176 55.30624 11.59168 5.75488 23.56224 9.74848 35.40992 12.09344l0 124.25216c0.01024 6.88128 2.74432 13.50656 7.61856 18.37056l447.50848 447.50848c10.14784 10.15808 26.60352 10.15808 36.75136 0l223.25248-223.25248C927.60064 681.22624 927.60064 664.77056 917.4528 654.61248zM209.94048 207.104c-4.87424 4.87424-7.60832 11.48928-7.60832 18.37056l0 81.33632c-9.25696-2.12992-18.59584-5.40672-27.70944-9.94304-22.528-11.18208-40.41728-28.09856-50.37056-47.64672-9.51296-18.688-10.52672-37.48864-2.85696-52.93056 2.33472-4.68992 5.40672-8.98048 9.17504-12.73856 22.3744-22.3744 64.768-24.68864 103.1168-5.64224 11.66336 5.79584 22.04672 13.14816 30.78144 21.58592l-36.15744 0C221.41952 199.48544 214.82496 202.22976 209.94048 207.104zM267.1104 264.28416c6.9632-6.9632 15.59552-11.2128 24.6272-12.8 0.79872 9.60512-0.73728 18.78016-4.82304 27.00288-2.32448 4.70016-5.41696 8.99072-9.18528 12.7488-6.33856 6.3488-14.336 11.01824-23.36768 14.11072C251.70944 290.89792 255.93856 275.44576 267.1104 264.28416zM332.45184 329.61536c-18.05312 18.04288-47.29856 18.04288-65.34144 0-2.52928-2.53952-4.67968-5.30432-6.49216-8.22272 11.264-3.91168 21.31968-9.86112 29.36832-17.90976 5.08928-5.09952 9.27744-10.9056 12.45184-17.28512 5.29408-10.65984 7.4752-22.36416 6.71744-34.46784 8.52992 1.76128 16.67072 5.92896 23.28576 12.55424C350.49472 282.3168 350.49472 311.57248 332.45184 329.61536z" p-id="2987"></path></svg>